<?xml version="1.0" encoding="utf-8"?>
<!-- Generator: Adobe Illustrator 16.0.0, SVG Export Plug-In . SVG Version: 6.00 Build 0)  -->
<!DOCTYPE svg PUBLIC "-//W3C//DTD SVG 1.1//EN" "http://www.w3.org/Graphics/SVG/1.1/DTD/svg11.dtd">
<svg version="1.1" id="Layer_1" xmlns="http://www.w3.org/2000/svg" xmlns:xlink="http://www.w3.org/1999/xlink" x="0px" y="0px"
	 width="312px" height="130.334px" viewBox="0 0 312 130.334" enable-background="new 0 0 312 130.334" xml:space="preserve">
<g>
	<g>
		<defs>
			<polygon id="SVGID_26_" points="89.736,100.917 23.86,100.917 23.86,29.84 121.88,29.84 121.88,100.917 113.334,100.917 
				113.334,38.187 32.404,38.187 32.404,92.567 89.736,92.567 			"/>
		</defs>
		<clipPath id="SVGID_1_">
			<use xlink:href="#SVGID_26_"  overflow="visible"/>
		</clipPath>
		
			<linearGradient id="SVGID_3_" gradientUnits="userSpaceOnUse" x1="-1805.4102" y1="-630.6553" x2="-1804.7168" y2="-630.6553" gradientTransform="matrix(141.4236 0 0 -141.4236 255351.4063 -89124.2031)">
			<stop  offset="0" style="stop-color:#EA8423"/>
			<stop  offset="0.3519" style="stop-color:#EC7744"/>
			<stop  offset="0.3793" style="stop-color:#EC7544"/>
			<stop  offset="0.7633" style="stop-color:#E85D47"/>
			<stop  offset="1" style="stop-color:#E75448"/>
		</linearGradient>
		<rect x="23.86" y="29.84" clip-path="url(#SVGID_1_)" fill="url(#SVGID_3_)" width="98.02" height="71.077"/>
	</g>
	<g>
		<path fill="#2F4858" d="M158.575,59.933c-7.815,0-13.652-4.502-13.652-14.541V29.417h6.132v15.776c0,6.43,2.771,9.547,7.619,9.547
			c4.846,0,7.616-3.117,7.616-9.547V29.417h5.885v15.975C172.175,55.431,166.389,59.933,158.575,59.933"/>
		<path fill="#2F4858" d="M183.793,47.419v11.672h-5.736V37.727h5.242l0.248,3.907c1.236-2.473,4.353-4.501,7.963-4.501v5.588
			C187.603,41.78,183.793,43.76,183.793,47.419"/>
		<path fill="#2F4858" d="M208.125,59.685c-3.017,0-6.182-1.384-7.963-4.004l-0.196,3.409h-5.193V29.417h5.736v11.228
			c1.831-2.325,4.748-3.512,7.616-3.512c5.787,0,10.041,4.846,10.041,11.276C218.166,54.841,213.912,59.685,208.125,59.685
			 M206.345,41.386c-3.361,0-6.084,2.621-6.084,7.023c0,4.401,2.723,7.021,6.084,7.021c3.362,0,6.083-2.62,6.083-7.021
			C212.428,44.007,209.707,41.386,206.345,41.386"/>
		<path fill="#2F4858" d="M239.527,59.09l-0.197-3.409c-1.78,2.62-4.947,4.004-7.963,4.004c-5.786,0-10.04-4.844-10.04-11.275
			c0-6.431,4.254-11.276,10.04-11.276c3.016,0,6.183,1.385,7.963,4.006l0.197-3.412h5.193V59.09H239.527z M233.147,41.386
			c-3.362,0-6.082,2.621-6.082,7.023c0,4.401,2.72,7.021,6.082,7.021c3.363,0,6.083-2.62,6.083-7.021
			C239.23,44.007,236.511,41.386,233.147,41.386"/>
		<path fill="#2F4858" d="M265.837,59.091V47.272c0-4.154-1.434-5.54-4.055-5.54c-2.721,0-5.689,2.473-5.689,5.44v11.918h-5.735
			V37.727h5.242l0.246,3.956c1.435-2.719,4.648-4.551,7.913-4.551c5.687,0,7.814,3.956,7.814,9.25v12.709H265.837z"/>
		<polygon fill="#2F4858" points="144.923,99.471 144.923,69.798 150.957,69.798 150.957,94.771 164.261,94.771 164.261,99.471 		
			"/>
		<path fill="#2F4858" d="M184.387,99.471l-0.196-3.413c-1.78,2.622-4.946,4.006-7.963,4.006c-5.786,0-10.039-4.846-10.039-11.276
			c0-6.428,4.253-11.276,10.039-11.276c3.017,0,6.183,1.385,7.963,4.007l0.196-3.413h5.195v21.366H184.387z M178.009,81.765
			c-3.363,0-6.084,2.621-6.084,7.022s2.721,7.022,6.084,7.022c3.362,0,6.083-2.621,6.083-7.022S181.371,81.765,178.009,81.765"/>
		<path fill="#2F4858" d="M212.181,99.471l-0.198-3.413c-1.779,2.622-4.945,4.006-7.963,4.006c-5.787,0-10.039-4.846-10.039-11.276
			c0-6.428,4.252-11.276,10.039-11.276c2.869,0,5.786,1.188,7.617,3.511V69.795h5.737v29.676H212.181z M205.8,81.765
			c-3.363,0-6.081,2.621-6.081,7.022s2.718,7.022,6.081,7.022c3.364,0,6.085-2.621,6.085-7.022S209.164,81.765,205.8,81.765"/>
		<path fill="#2F4858" d="M239.973,99.471l-0.197-3.413c-1.781,2.622-4.945,4.006-7.963,4.006c-5.787,0-10.039-4.846-10.039-11.276
			c0-6.428,4.252-11.276,10.039-11.276c2.869,0,5.785,1.188,7.616,3.511V69.795h5.737v29.676H239.973z M233.593,81.765
			c-3.362,0-6.083,2.621-6.083,7.022s2.721,7.022,6.083,7.022c3.363,0,6.084-2.621,6.084-7.022S236.956,81.765,233.593,81.765"/>
		<path fill="#2F4858" d="M269.545,88.937h-14.242c-0.148,3.264,1.532,6.974,7.271,6.974c2.421,0,5.291-1.09,6.922-2.524v4.156
			c-2.029,1.582-5.144,2.521-8.705,2.521c-6.576,0-11.178-4.798-11.178-11.424c0-6.826,5.244-11.129,10.783-11.129
			c5.44,0,9.496,3.413,9.496,8.458C269.893,86.908,269.744,88.194,269.545,88.937 M260.544,81.171c-2.424,0-4.501,1.386-4.994,4.699
			h9.148C265.193,83.299,263.513,81.171,260.544,81.171"/>
		<path fill="#2F4858" d="M280.424,87.799v11.672h-5.737V78.104h5.242l0.248,3.907c1.237-2.472,4.351-4.501,7.963-4.501V83.1
			C284.231,82.159,280.424,84.14,280.424,87.799"/>
	</g>
</g>
</svg>
